<mxfile host="app.diagrams.net" modified="2023-06-05T18:52:01.152Z" agent="Mozilla/5.0 (Windows NT 10.0; Win64; x64) AppleWebKit/537.36 (KHTML, like Gecko) Chrome/114.0.0.0 Safari/537.36 Edg/114.0.1823.37" etag="ZmISNxosR22xXfShMHwd" version="21.3.7" type="google">
  <diagram id="C5RBs43oDa-KdzZeNtuy" name="Page-1">
    <mxGraphModel dx="3187" dy="1698" grid="1" gridSize="10" guides="1" tooltips="1" connect="1" arrows="1" fold="1" page="1" pageScale="1" pageWidth="827" pageHeight="1169" math="0" shadow="0">
      <root>
        <mxCell id="WIyWlLk6GJQsqaUBKTNV-0" />
        <mxCell id="WIyWlLk6GJQsqaUBKTNV-1" parent="WIyWlLk6GJQsqaUBKTNV-0" />
        <mxCell id="lk70ItsfXe-UKx0cMRO--3" style="edgeStyle=orthogonalEdgeStyle;rounded=0;orthogonalLoop=1;jettySize=auto;html=1;exitX=0.5;exitY=1;exitDx=0;exitDy=0;exitPerimeter=0;entryX=0.5;entryY=0;entryDx=0;entryDy=0;fontFamily=Times New Roman;fontSize=20;strokeWidth=2;" edge="1" parent="WIyWlLk6GJQsqaUBKTNV-1" source="TY4NAdZdxOSAQZ4wENjc-0" target="lk70ItsfXe-UKx0cMRO--0">
          <mxGeometry relative="1" as="geometry" />
        </mxCell>
        <mxCell id="TY4NAdZdxOSAQZ4wENjc-0" value="&lt;font style=&quot;font-size: 20px;&quot;&gt;Начало&lt;/font&gt;" style="strokeWidth=2;html=1;shape=mxgraph.flowchart.terminator;whiteSpace=wrap;fontSize=20;fontFamily=Times New Roman;" parent="WIyWlLk6GJQsqaUBKTNV-1" vertex="1">
          <mxGeometry x="410" y="110" width="100" height="60" as="geometry" />
        </mxCell>
        <mxCell id="lk70ItsfXe-UKx0cMRO--5" value="Да" style="edgeStyle=orthogonalEdgeStyle;rounded=0;orthogonalLoop=1;jettySize=auto;html=1;exitX=0.5;exitY=1;exitDx=0;exitDy=0;exitPerimeter=0;entryX=0.5;entryY=0;entryDx=0;entryDy=0;fontFamily=Times New Roman;fontSize=20;strokeWidth=2;" edge="1" parent="WIyWlLk6GJQsqaUBKTNV-1" source="TY4NAdZdxOSAQZ4wENjc-1" target="lk70ItsfXe-UKx0cMRO--1">
          <mxGeometry relative="1" as="geometry" />
        </mxCell>
        <mxCell id="lk70ItsfXe-UKx0cMRO--15" style="edgeStyle=orthogonalEdgeStyle;rounded=0;orthogonalLoop=1;jettySize=auto;html=1;exitX=0;exitY=0.5;exitDx=0;exitDy=0;exitPerimeter=0;entryX=1;entryY=0.5;entryDx=0;entryDy=0;fontFamily=Times New Roman;fontSize=20;" edge="1" parent="WIyWlLk6GJQsqaUBKTNV-1" source="TY4NAdZdxOSAQZ4wENjc-1" target="lk70ItsfXe-UKx0cMRO--9">
          <mxGeometry relative="1" as="geometry" />
        </mxCell>
        <mxCell id="TY4NAdZdxOSAQZ4wENjc-1" value="&lt;font style=&quot;font-size: 20px;&quot;&gt;Авторизация пройдена&lt;/font&gt;" style="strokeWidth=2;html=1;shape=mxgraph.flowchart.decision;whiteSpace=wrap;fontFamily=Times New Roman;fontSize=20;" parent="WIyWlLk6GJQsqaUBKTNV-1" vertex="1">
          <mxGeometry x="370" y="454" width="180" height="110" as="geometry" />
        </mxCell>
        <mxCell id="lk70ItsfXe-UKx0cMRO--4" style="edgeStyle=orthogonalEdgeStyle;rounded=0;orthogonalLoop=1;jettySize=auto;html=1;exitX=0.5;exitY=1;exitDx=0;exitDy=0;fontFamily=Times New Roman;fontSize=20;strokeWidth=2;" edge="1" parent="WIyWlLk6GJQsqaUBKTNV-1" source="lk70ItsfXe-UKx0cMRO--0" target="TY4NAdZdxOSAQZ4wENjc-1">
          <mxGeometry relative="1" as="geometry" />
        </mxCell>
        <mxCell id="lk70ItsfXe-UKx0cMRO--0" value="&lt;font style=&quot;font-size: 20px;&quot;&gt;Переход на страницу матча&lt;/font&gt;" style="shape=parallelogram;perimeter=parallelogramPerimeter;whiteSpace=wrap;html=1;fixedSize=1;fontFamily=Times New Roman;strokeWidth=2;fontSize=20;" vertex="1" parent="WIyWlLk6GJQsqaUBKTNV-1">
          <mxGeometry x="370" y="280" width="180" height="70" as="geometry" />
        </mxCell>
        <mxCell id="lk70ItsfXe-UKx0cMRO--6" style="edgeStyle=orthogonalEdgeStyle;rounded=0;orthogonalLoop=1;jettySize=auto;html=1;exitX=0.5;exitY=1;exitDx=0;exitDy=0;fontFamily=Times New Roman;fontSize=20;strokeWidth=2;" edge="1" parent="WIyWlLk6GJQsqaUBKTNV-1" source="lk70ItsfXe-UKx0cMRO--1" target="lk70ItsfXe-UKx0cMRO--2">
          <mxGeometry relative="1" as="geometry" />
        </mxCell>
        <mxCell id="lk70ItsfXe-UKx0cMRO--1" value="&lt;font style=&quot;font-size: 20px;&quot;&gt;Выбор исхода&lt;/font&gt;" style="shape=parallelogram;perimeter=parallelogramPerimeter;whiteSpace=wrap;html=1;fixedSize=1;fontFamily=Times New Roman;strokeWidth=2;fontSize=20;" vertex="1" parent="WIyWlLk6GJQsqaUBKTNV-1">
          <mxGeometry x="370" y="680" width="180" height="70" as="geometry" />
        </mxCell>
        <mxCell id="lk70ItsfXe-UKx0cMRO--2" value="1" style="ellipse;whiteSpace=wrap;html=1;aspect=fixed;fontFamily=Times New Roman;fontSize=20;strokeWidth=2;" vertex="1" parent="WIyWlLk6GJQsqaUBKTNV-1">
          <mxGeometry x="420" y="850" width="80" height="80" as="geometry" />
        </mxCell>
        <mxCell id="lk70ItsfXe-UKx0cMRO--18" style="edgeStyle=orthogonalEdgeStyle;rounded=0;orthogonalLoop=1;jettySize=auto;html=1;exitX=0.5;exitY=1;exitDx=0;exitDy=0;entryX=0.5;entryY=0;entryDx=0;entryDy=0;fontFamily=Times New Roman;fontSize=20;" edge="1" parent="WIyWlLk6GJQsqaUBKTNV-1" source="lk70ItsfXe-UKx0cMRO--7" target="lk70ItsfXe-UKx0cMRO--8">
          <mxGeometry relative="1" as="geometry" />
        </mxCell>
        <mxCell id="lk70ItsfXe-UKx0cMRO--7" value="1" style="ellipse;whiteSpace=wrap;html=1;aspect=fixed;fontFamily=Times New Roman;fontSize=20;strokeWidth=2;" vertex="1" parent="WIyWlLk6GJQsqaUBKTNV-1">
          <mxGeometry x="1140" y="10" width="80" height="80" as="geometry" />
        </mxCell>
        <mxCell id="lk70ItsfXe-UKx0cMRO--19" style="edgeStyle=orthogonalEdgeStyle;rounded=0;orthogonalLoop=1;jettySize=auto;html=1;exitX=0.5;exitY=1;exitDx=0;exitDy=0;entryX=0.5;entryY=0;entryDx=0;entryDy=0;fontFamily=Times New Roman;fontSize=20;" edge="1" parent="WIyWlLk6GJQsqaUBKTNV-1" source="lk70ItsfXe-UKx0cMRO--8" target="lk70ItsfXe-UKx0cMRO--10">
          <mxGeometry relative="1" as="geometry" />
        </mxCell>
        <mxCell id="lk70ItsfXe-UKx0cMRO--8" value="&lt;font style=&quot;font-size: 20px;&quot;&gt;Открытие формы подтверждения ставки. Ввод суммы ставки&lt;/font&gt;" style="shape=parallelogram;perimeter=parallelogramPerimeter;whiteSpace=wrap;html=1;fixedSize=1;fontFamily=Times New Roman;strokeWidth=2;fontSize=20;" vertex="1" parent="WIyWlLk6GJQsqaUBKTNV-1">
          <mxGeometry x="1065" y="130" width="230" height="110" as="geometry" />
        </mxCell>
        <mxCell id="lk70ItsfXe-UKx0cMRO--16" style="edgeStyle=orthogonalEdgeStyle;rounded=0;orthogonalLoop=1;jettySize=auto;html=1;exitX=0;exitY=0.5;exitDx=0;exitDy=0;fontFamily=Times New Roman;fontSize=20;" edge="1" parent="WIyWlLk6GJQsqaUBKTNV-1" source="lk70ItsfXe-UKx0cMRO--9">
          <mxGeometry relative="1" as="geometry">
            <mxPoint x="460" y="220" as="targetPoint" />
            <Array as="points">
              <mxPoint x="19.999999999999943" y="509" />
              <mxPoint x="19.999999999999943" y="220" />
            </Array>
          </mxGeometry>
        </mxCell>
        <mxCell id="lk70ItsfXe-UKx0cMRO--9" value="&lt;font style=&quot;font-size: 20px;&quot;&gt;Открытие модального окна для авторизации&lt;/font&gt;" style="shape=parallelogram;perimeter=parallelogramPerimeter;whiteSpace=wrap;html=1;fixedSize=1;fontFamily=Times New Roman;strokeWidth=2;fontSize=20;" vertex="1" parent="WIyWlLk6GJQsqaUBKTNV-1">
          <mxGeometry x="69.99999999999997" y="454" width="230" height="110" as="geometry" />
        </mxCell>
        <mxCell id="lk70ItsfXe-UKx0cMRO--20" style="edgeStyle=orthogonalEdgeStyle;rounded=0;orthogonalLoop=1;jettySize=auto;html=1;exitX=0.5;exitY=1;exitDx=0;exitDy=0;entryX=0.5;entryY=0;entryDx=0;entryDy=0;entryPerimeter=0;fontFamily=Times New Roman;fontSize=20;" edge="1" parent="WIyWlLk6GJQsqaUBKTNV-1" source="lk70ItsfXe-UKx0cMRO--10" target="lk70ItsfXe-UKx0cMRO--11">
          <mxGeometry relative="1" as="geometry" />
        </mxCell>
        <mxCell id="lk70ItsfXe-UKx0cMRO--10" value="Проверка на валидность введёных данных. Отправка данных на сервер" style="rounded=0;whiteSpace=wrap;html=1;fontFamily=Times New Roman;fontSize=20;strokeWidth=2;" vertex="1" parent="WIyWlLk6GJQsqaUBKTNV-1">
          <mxGeometry x="1065" y="310" width="230" height="100" as="geometry" />
        </mxCell>
        <mxCell id="lk70ItsfXe-UKx0cMRO--21" value="Да" style="edgeStyle=orthogonalEdgeStyle;rounded=0;orthogonalLoop=1;jettySize=auto;html=1;exitX=0.5;exitY=1;exitDx=0;exitDy=0;exitPerimeter=0;entryX=0.5;entryY=0;entryDx=0;entryDy=0;entryPerimeter=0;fontFamily=Times New Roman;fontSize=20;" edge="1" parent="WIyWlLk6GJQsqaUBKTNV-1" source="lk70ItsfXe-UKx0cMRO--11" target="lk70ItsfXe-UKx0cMRO--12">
          <mxGeometry relative="1" as="geometry" />
        </mxCell>
        <mxCell id="lk70ItsfXe-UKx0cMRO--25" value="Нет" style="edgeStyle=orthogonalEdgeStyle;rounded=0;orthogonalLoop=1;jettySize=auto;html=1;exitX=0;exitY=0.5;exitDx=0;exitDy=0;exitPerimeter=0;entryX=1;entryY=0.5;entryDx=0;entryDy=0;fontFamily=Times New Roman;fontSize=20;" edge="1" parent="WIyWlLk6GJQsqaUBKTNV-1" source="lk70ItsfXe-UKx0cMRO--11" target="lk70ItsfXe-UKx0cMRO--24">
          <mxGeometry relative="1" as="geometry" />
        </mxCell>
        <mxCell id="lk70ItsfXe-UKx0cMRO--11" value="Сумма ставки &lt;br style=&quot;font-size: 20px;&quot;&gt;превышает количество денег &lt;br style=&quot;font-size: 20px;&quot;&gt;на игровом счету" style="strokeWidth=2;html=1;shape=mxgraph.flowchart.decision;whiteSpace=wrap;fontFamily=Times New Roman;fontSize=20;" vertex="1" parent="WIyWlLk6GJQsqaUBKTNV-1">
          <mxGeometry x="1030" y="480" width="300" height="160" as="geometry" />
        </mxCell>
        <mxCell id="lk70ItsfXe-UKx0cMRO--22" value="Да" style="edgeStyle=orthogonalEdgeStyle;rounded=0;orthogonalLoop=1;jettySize=auto;html=1;exitX=0.5;exitY=1;exitDx=0;exitDy=0;exitPerimeter=0;entryX=0.5;entryY=0;entryDx=0;entryDy=0;fontFamily=Times New Roman;fontSize=20;" edge="1" parent="WIyWlLk6GJQsqaUBKTNV-1" source="lk70ItsfXe-UKx0cMRO--12" target="lk70ItsfXe-UKx0cMRO--13">
          <mxGeometry relative="1" as="geometry" />
        </mxCell>
        <mxCell id="lk70ItsfXe-UKx0cMRO--27" value="Нет" style="edgeStyle=orthogonalEdgeStyle;rounded=0;orthogonalLoop=1;jettySize=auto;html=1;exitX=0;exitY=0.5;exitDx=0;exitDy=0;exitPerimeter=0;entryX=1;entryY=0.5;entryDx=0;entryDy=0;fontFamily=Times New Roman;fontSize=20;" edge="1" parent="WIyWlLk6GJQsqaUBKTNV-1" source="lk70ItsfXe-UKx0cMRO--12" target="lk70ItsfXe-UKx0cMRO--26">
          <mxGeometry relative="1" as="geometry">
            <Array as="points">
              <mxPoint x="990" y="765" />
              <mxPoint x="990" y="765" />
            </Array>
          </mxGeometry>
        </mxCell>
        <mxCell id="lk70ItsfXe-UKx0cMRO--12" value="На этот матч уже &lt;br style=&quot;font-size: 20px;&quot;&gt;сделана ставка" style="strokeWidth=2;html=1;shape=mxgraph.flowchart.decision;whiteSpace=wrap;fontFamily=Times New Roman;fontSize=20;verticalAlign=middle;" vertex="1" parent="WIyWlLk6GJQsqaUBKTNV-1">
          <mxGeometry x="1030" y="700" width="300" height="130" as="geometry" />
        </mxCell>
        <mxCell id="lk70ItsfXe-UKx0cMRO--23" style="edgeStyle=orthogonalEdgeStyle;rounded=0;orthogonalLoop=1;jettySize=auto;html=1;exitX=0.5;exitY=1;exitDx=0;exitDy=0;entryX=0.5;entryY=0;entryDx=0;entryDy=0;entryPerimeter=0;fontFamily=Times New Roman;fontSize=20;" edge="1" parent="WIyWlLk6GJQsqaUBKTNV-1" source="lk70ItsfXe-UKx0cMRO--13" target="lk70ItsfXe-UKx0cMRO--14">
          <mxGeometry relative="1" as="geometry" />
        </mxCell>
        <mxCell id="lk70ItsfXe-UKx0cMRO--13" value="Списание денег с игрового счета" style="rounded=0;whiteSpace=wrap;html=1;fontFamily=Times New Roman;fontSize=20;strokeWidth=2;" vertex="1" parent="WIyWlLk6GJQsqaUBKTNV-1">
          <mxGeometry x="1090" y="890" width="180" height="90" as="geometry" />
        </mxCell>
        <mxCell id="lk70ItsfXe-UKx0cMRO--14" value="&lt;font style=&quot;font-size: 20px;&quot;&gt;Конец&lt;/font&gt;" style="strokeWidth=2;html=1;shape=mxgraph.flowchart.terminator;whiteSpace=wrap;fontSize=20;fontFamily=Times New Roman;" vertex="1" parent="WIyWlLk6GJQsqaUBKTNV-1">
          <mxGeometry x="1130" y="1059" width="100" height="60" as="geometry" />
        </mxCell>
        <mxCell id="lk70ItsfXe-UKx0cMRO--17" value="Нет" style="text;html=1;strokeColor=none;fillColor=none;align=center;verticalAlign=middle;whiteSpace=wrap;rounded=0;fontFamily=Times New Roman;fontSize=20;" vertex="1" parent="WIyWlLk6GJQsqaUBKTNV-1">
          <mxGeometry x="310" y="470" width="60" height="30" as="geometry" />
        </mxCell>
        <mxCell id="lk70ItsfXe-UKx0cMRO--30" style="edgeStyle=orthogonalEdgeStyle;rounded=0;orthogonalLoop=1;jettySize=auto;html=1;exitX=0;exitY=0.5;exitDx=0;exitDy=0;fontFamily=Times New Roman;fontSize=20;" edge="1" parent="WIyWlLk6GJQsqaUBKTNV-1" source="lk70ItsfXe-UKx0cMRO--24">
          <mxGeometry relative="1" as="geometry">
            <mxPoint x="610" y="560.3846153846152" as="targetPoint" />
          </mxGeometry>
        </mxCell>
        <mxCell id="lk70ItsfXe-UKx0cMRO--24" value="Вывод ошибки, о том что сумма ставки превышает количество денег на игровом счет" style="rounded=0;whiteSpace=wrap;html=1;fontFamily=Times New Roman;fontSize=20;strokeWidth=2;" vertex="1" parent="WIyWlLk6GJQsqaUBKTNV-1">
          <mxGeometry x="720" y="510" width="230" height="100" as="geometry" />
        </mxCell>
        <mxCell id="lk70ItsfXe-UKx0cMRO--29" style="edgeStyle=orthogonalEdgeStyle;rounded=0;orthogonalLoop=1;jettySize=auto;html=1;exitX=0;exitY=0.5;exitDx=0;exitDy=0;fontFamily=Times New Roman;fontSize=20;" edge="1" parent="WIyWlLk6GJQsqaUBKTNV-1" source="lk70ItsfXe-UKx0cMRO--26">
          <mxGeometry relative="1" as="geometry">
            <mxPoint x="1180.0000000000005" y="270" as="targetPoint" />
            <Array as="points">
              <mxPoint x="610" y="765" />
              <mxPoint x="610" y="270" />
            </Array>
          </mxGeometry>
        </mxCell>
        <mxCell id="lk70ItsfXe-UKx0cMRO--26" value="Вывод ошибки, о том что на этот матч уже сделана ставка" style="rounded=0;whiteSpace=wrap;html=1;fontFamily=Times New Roman;fontSize=20;strokeWidth=2;" vertex="1" parent="WIyWlLk6GJQsqaUBKTNV-1">
          <mxGeometry x="720" y="715" width="230" height="100" as="geometry" />
        </mxCell>
      </root>
    </mxGraphModel>
  </diagram>
</mxfile>
